<?xml version="1.0" encoding="utf-8"?>
<!-- Generator: Adobe Illustrator 16.2.0, SVG Export Plug-In . SVG Version: 6.00 Build 0)  -->
<!DOCTYPE svg PUBLIC "-//W3C//DTD SVG 1.1//EN" "http://www.w3.org/Graphics/SVG/1.1/DTD/svg11.dtd">
<svg version="1.1" id="Layer_1" xmlns="http://www.w3.org/2000/svg" xmlns:xlink="http://www.w3.org/1999/xlink" x="0px" y="0px"
	 width="100px" height="100px" viewBox="0 0 100 100" enable-background="new 0 0 100 100" xml:space="preserve">
<g>
	<path d="M47.581,57.932l3.565,21.359l-10.604,1.771l-8.438-50.581l36.085-6.021l1.461,8.772l-25.48,4.251l1.923,11.521
		l22.276-3.717l1.49,8.924L47.581,57.932z"/>
</g>
<polygon points="22.892,78.862 28.347,68.759 31.783,71.184 22.285,81.085 "/>
<polygon points="26.125,83.105 34.005,78.459 34.612,80.883 "/>
<polygon points="20.062,77.852 20.871,67.546 17.232,67.344 "/>
<polygon points="19.253,79.67 11.372,73.002 9.958,76.235 "/>
<polygon points="18.646,82.298 8.948,84.116 10.564,87.148 "/>
<polygon points="14.404,91.393 17.838,94.221 21.476,84.925 "/>
<g>
	<path d="M26.198,85.316c2.477,1.225,5.042,2.224,7.629,3.104c2.586,0.883,5.224,1.578,7.872,2.121
		c2.646,0.548,5.319,0.903,7.98,1.021c2.662,0.102,5.313,0.062,7.907-0.306c2.593-0.353,5.129-0.969,7.539-1.877
		c2.417-0.883,4.726-2.022,6.864-3.427c2.149-1.384,4.121-3.043,5.937-4.857c0.896-0.922,1.771-1.865,2.597-2.857
		c0.815-0.977,1.662-2.041,2.322-3.034c0.724-1.06,1.428-2.179,2.069-3.282c0.31-0.554,0.619-1.105,0.874-1.639
		c0.148-0.277,0.246-0.521,0.352-0.766l0.23-0.525l0.154-0.378c0.903-2.311,1.625-4.851,2.141-7.371
		c1.056-5.063,1.373-10.271,0.804-15.332c-0.561-5.063-2.032-9.978-4.382-14.466l-0.105-0.213l-0.026-0.053l-0.015-0.025
		c0.097,0.169,0.019,0.031,0.035,0.062l-0.063-0.112l-0.257-0.448l-0.516-0.896l-0.962-1.482l-1.109-1.511
		c-0.4-0.491-0.777-0.994-1.195-1.479c-1.652-1.949-3.329-3.922-6.582-6.203c-0.666-0.431-2.054-1.435-2.75-1.833
		c-1.398-0.79-2.668-1.427-4.147-2.067c-1.481-0.63-2.979-1.238-4.518-1.719c-1.534-0.484-3.088-0.917-4.664-1.22
		c-1.57-0.333-3.16-0.558-4.757-0.713c-1.597-0.115-3.205-0.193-4.806-0.102c-1.605,0.048-3.202,0.252-4.789,0.523
		c-1.588,0.278-3.149,0.691-4.709,1.14c-0.775,0.239-1.536,0.528-2.31,0.788c-0.761,0.292-1.507,0.628-2.265,0.94
		c-1.486,0.69-2.954,1.44-4.37,2.299c-0.73,0.393-1.397,0.89-2.098,1.338l-1.05,0.683c-0.312,0.217-0.649,0.471-0.973,0.72
		c-1.305,1.016-2.57,2.12-3.77,3.291c-1.21,1.164-2.339,2.41-3.429,3.693c-1.089,1.285-2.104,2.637-3.034,4.052
		c-1.847,2.832-3.382,5.909-4.356,9.228c0.425-3.431,1.515-6.812,3.068-9.959c1.541-3.162,3.506-6.126,5.785-8.833
		c1.134-1.361,2.341-2.66,3.635-3.903c0.329-0.312,0.649-0.611,1.015-0.927l1.031-0.847c0.703-0.549,1.376-1.139,2.124-1.634
		c1.446-1.059,2.97-2.017,4.537-2.917c0.801-0.417,1.593-0.859,2.409-1.256c0.83-0.367,1.651-0.761,2.496-1.104
		c0.856-0.31,1.699-0.671,2.575-0.933c0.881-0.244,1.749-0.547,2.646-0.738c1.783-0.424,3.594-0.77,5.425-0.942
		c1.829-0.219,3.673-0.252,5.514-0.231c1.837,0.066,3.682,0.188,5.493,0.489c3.635,0.561,7.188,1.548,10.593,2.89
		c1.702,0.673,3.37,1.432,4.998,2.283c0.813,0.431,2.445,1.5,3.242,1.979c0.817,0.492,2.083,1.417,2.083,1.417
		s3.167,2.333,5.904,5.841c0.976,1.11,1.911,2.283,2.788,3.512c0.435,0.651,0.901,1.346,1.295,1.979l0.519,0.893l0.261,0.447
		l0.179,0.322l0.128,0.248c2.822,5.247,4.533,11.088,5.133,16.979c0.321,2.946,0.339,5.908,0.119,8.838
		c-0.211,2.932-0.653,5.834-1.328,8.679c-0.682,2.854-1.544,5.612-2.734,8.399l-0.451,0.984c-0.176,0.384-0.353,0.773-0.539,1.099
		c-0.365,0.697-0.752,1.334-1.138,1.972c-0.784,1.252-1.588,2.438-2.457,3.628c-0.914,1.269-1.834,2.323-2.834,3.418
		c-0.978,1.09-2.043,2.105-3.134,3.092c-2.204,1.947-4.592,3.714-7.171,5.159c-2.567,1.455-5.303,2.631-8.133,3.426
		c-2.83,0.797-5.736,1.238-8.628,1.381c-2.894,0.141-5.776-0.008-8.595-0.457c-2.819-0.438-5.575-1.119-8.253-1.986
		c-2.678-0.871-5.26-1.976-7.761-3.205C30.845,88.352,28.43,86.954,26.198,85.316z"/>
</g>
</svg>
