<?xml version="1.0" encoding="utf-8"?>
<!-- Generator: Adobe Illustrator 16.2.0, SVG Export Plug-In . SVG Version: 6.00 Build 0)  -->
<!DOCTYPE svg PUBLIC "-//W3C//DTD SVG 1.1//EN" "http://www.w3.org/Graphics/SVG/1.1/DTD/svg11.dtd">
<svg version="1.1" id="Layer_1" xmlns="http://www.w3.org/2000/svg" xmlns:xlink="http://www.w3.org/1999/xlink" x="0px" y="0px"
	 width="456.07px" height="264.08px" viewBox="0 0 456.07 264.08" enable-background="new 0 0 456.07 264.08" xml:space="preserve">
<g>
	<path d="M285.758,158.985l11.885,71.193l-35.346,5.904L234.17,67.488L354.449,47.42l4.869,29.237l-84.93,14.169l6.408,38.402
		l74.251-12.39l4.968,29.745L285.758,158.985z"/>
</g>
<polygon points="203.467,228.75 221.648,195.073 233.102,203.156 201.443,236.158 "/>
<polygon points="214.242,242.893 240.507,227.405 242.533,235.484 "/>
<polygon points="194.033,225.381 196.73,191.031 184.6,190.357 "/>
<polygon points="191.337,231.442 165.068,209.216 160.355,219.994 "/>
<polygon points="189.314,240.201 156.989,246.262 162.376,256.369 "/>
<polygon points="175.176,270.516 186.62,279.941 198.746,248.957 "/>
<g>
	<path d="M214.486,250.262c8.256,4.083,16.805,7.412,25.429,10.345c8.619,2.942,17.409,5.261,26.238,7.071
		c8.817,1.825,17.729,3.01,26.597,3.403c8.873,0.339,17.711,0.206,26.355-1.021c8.643-1.176,17.096-3.229,25.13-6.256
		c8.056-2.943,15.754-6.737,22.88-11.422c7.16-4.612,13.736-10.144,19.786-16.19c2.989-3.072,5.905-6.215,8.659-9.521
		c2.714-3.258,5.54-6.803,7.737-10.113c2.415-3.532,4.763-7.262,6.897-10.94c1.031-1.845,2.063-3.685,2.912-5.462
		c0.492-0.924,0.82-1.738,1.173-2.552l0.768-1.751l0.512-1.26c3.009-7.704,5.415-16.171,7.138-24.568
		c3.518-16.878,4.576-34.237,2.679-51.104c-1.868-16.878-6.771-33.258-14.606-48.218l-0.348-0.71l-0.087-0.178l-0.05-0.081
		c0.323,0.563,0.063,0.103,0.117,0.205l-0.212-0.373l-0.854-1.492l-1.723-2.988l-3.205-4.938l-3.695-5.037
		c-1.335-1.635-2.591-3.314-3.984-4.931c-5.508-6.497-11.096-13.071-21.939-20.675c-2.219-1.436-6.844-4.784-9.166-6.11
		c-4.658-2.633-8.893-4.756-13.822-6.889c-4.937-2.101-9.929-4.125-15.06-5.731c-5.112-1.612-10.291-3.056-15.546-4.065
		c-5.232-1.11-10.533-1.86-15.854-2.375c-5.321-0.385-10.683-0.645-16.02-0.343c-5.35,0.162-10.671,0.842-15.961,1.745
		c-5.296,0.926-10.498,2.303-15.698,3.799c-2.582,0.798-5.118,1.761-7.699,2.626c-2.535,0.975-5.021,2.094-7.549,3.135
		c-4.953,2.298-9.846,4.799-14.566,7.663c-2.433,1.309-4.656,2.965-6.993,4.458l-3.498,2.278c-1.04,0.722-2.163,1.569-3.243,2.399
		c-4.35,3.386-8.569,7.065-12.566,10.971c-4.033,3.877-7.797,8.031-11.432,12.307c-3.629,4.284-7.01,8.79-10.111,13.508
		c-6.156,9.438-11.274,19.695-14.518,30.757c1.415-11.435,5.047-22.705,10.225-33.194c5.137-10.54,11.688-20.419,19.283-29.441
		c3.778-4.537,7.802-8.866,12.115-13.011c1.096-1.038,2.162-2.034,3.383-3.089l3.438-2.821c2.341-1.831,4.585-3.798,7.079-5.448
		c4.818-3.53,9.898-6.724,15.12-9.723c2.672-1.391,5.312-2.862,8.03-4.187c2.766-1.223,5.504-2.537,8.318-3.679
		c2.854-1.034,5.664-2.237,8.584-3.11c2.936-0.813,5.83-1.823,8.82-2.46c5.943-1.412,11.979-2.567,18.082-3.14
		c6.098-0.729,12.242-0.841,18.379-0.769c6.122,0.218,12.275,0.625,18.309,1.629c12.116,1.871,23.957,5.159,35.309,9.634
		c5.672,2.242,11.232,4.771,16.658,7.608c2.711,1.437,8.15,5,10.807,6.596c2.725,1.641,6.943,4.723,6.943,4.723
		s10.557,7.776,19.68,19.468c3.252,3.702,6.366,7.611,9.29,11.708c1.45,2.169,3.005,4.487,4.319,6.596l1.727,2.978l0.871,1.488
		l0.6,1.075l0.426,0.825c9.406,17.49,15.109,36.959,17.109,56.592c1.068,9.821,1.129,19.693,0.396,29.462
		c-0.705,9.771-2.178,19.445-4.428,28.928c-2.271,9.512-5.145,18.706-9.113,27.993l-1.504,3.28c-0.586,1.28-1.176,2.576-1.797,3.663
		c-1.216,2.323-2.507,4.446-3.793,6.574c-2.613,4.173-5.292,8.125-8.19,12.093c-3.045,4.229-6.111,7.744-9.444,11.394
		c-3.26,3.631-6.811,7.014-10.445,10.305c-7.348,6.49-15.305,12.378-23.901,17.196c-8.558,4.851-17.677,8.769-27.108,11.418
		c-9.434,2.657-19.121,4.128-28.758,4.603c-9.648,0.47-19.254-0.025-28.65-1.522c-9.396-1.459-18.582-3.73-27.509-6.622
		c-8.926-2.903-17.531-6.583-25.868-10.682C229.975,260.379,221.924,255.722,214.486,250.262z"/>
</g>
</svg>
